<?xml version="1.0" encoding="utf-8"?>
<!-- Generator: Adobe Illustrator 16.0.0, SVG Export Plug-In . SVG Version: 6.00 Build 0)  -->
<!DOCTYPE svg PUBLIC "-//W3C//DTD SVG 1.1//EN" "http://www.w3.org/Graphics/SVG/1.1/DTD/svg11.dtd">
<svg version="1.1" id="Layer_1" xmlns="http://www.w3.org/2000/svg" xmlns:xlink="http://www.w3.org/1999/xlink" x="0px" y="0px"
	 width="575.667px" height="148.667px" viewBox="0 0 575.667 148.667" enable-background="new 0 0 575.667 148.667"
	 xml:space="preserve">
<path fill="#F15922" d="M39.938,76.96c-1,0-1.917,0.002-2.833,0c-7.062,0-14.124,0.014-21.185-0.014
	c-2.281-0.01-4.328-0.099-6.131,2.034c-1.656,1.959-5.086,1.33-6.807-0.677c-1.589-1.854-1.454-5.037,0.286-6.757
	c1.966-1.941,5.297-2.123,7.068,0.023c1.239,1.5,2.565,1.641,4.215,1.638c12.421-0.028,24.843-0.003,37.265-0.045
	c1.518-0.005,2.65,0.284,3.774,1.497c2.157,2.33,5.568,2.226,7.747,0.056c2.074-2.066,2.132-5.461,0.131-7.612
	c-2.119-2.275-5.494-2.521-7.723-0.233c-1.223,1.254-2.444,1.574-4.043,1.541c-3.381-0.068-6.763-0.022-10.795-0.022
	c1.518-5.225,2.895-9.965,4.359-15c-1.05-0.103-2.019-0.271-2.989-0.278c-4.424-0.031-8.852-0.116-13.27,0.045
	c-1.316,0.047-2.785,0.573-3.872,1.33c-2.807,1.954-6.097,1.865-8.303-0.514c-2.149-2.319-2.194-5.749-0.105-8.115
	c2.053-2.323,5.642-2.481,8.355-0.673c1.166,0.776,2.724,1.351,4.106,1.357c20.334,0.082,40.668,0.052,61.003,0.047
	c0.847,0,1.693,0,3.073,0c-0.893,0.826-1.462,1.358-2.04,1.883c-11.996,10.895-16.717,24.368-12.75,40.07
	c3.933,15.568,14.272,25.396,29.935,29.211c22.663,5.521,45.839-11.012,48.274-34.27c2.276-21.727-12.252-40.794-33.695-44.129
	c-2.425-0.376-4.913-0.474-7.372-0.48c-18.803-0.042-37.605-0.031-56.408-0.036c-1.25,0-2.5,0-4.232,0
	c0.642-0.957,0.931-1.538,1.353-1.995c14.541-15.746,32.609-22.796,53.836-20.737c28.713,2.784,51.972,25.562,55.834,53.951
	c4.645,34.146-18.387,65.355-52.508,71.15c-27.844,4.726-56.44-10.791-67.743-36.765c-1.603-3.682-4.4-4.254-7.321-1.498
	c-2.255,2.125-5.299,2.122-7.261-0.009c-1.839-1.999-1.747-5.326,0.198-7.127c2.055-1.902,5.155-1.607,7.341,0.414
	c0.817,0.757,2.121,1.328,3.226,1.372c4.078,0.159,8.169-0.021,12.247,0.12c1.044,0.035,2.271,0.539,3.053,1.234
	c2.556,2.271,5.698,2.438,7.995,0.192c2.187-2.136,2.193-5.615,0.015-7.789c-2.256-2.254-5.375-2.108-8,0.149
	c-0.802,0.69-2.003,1.215-3.049,1.267c-3.226,0.161-6.479-0.142-9.69,0.121c-2.348,0.192-3.002-0.935-3.204-2.833
	C40.846,85.846,40.42,81.628,39.938,76.96z"/>
<path fill="#1F212C" d="M88.162,78.919c-0.011-16.354,13.002-29.537,29.202-29.581c16.941-0.044,30.02,12.9,30.003,29.694
	c-0.018,16.389-13.164,29.436-29.662,29.436C101.256,108.468,88.172,95.38,88.162,78.919z M99.139,78.763
	c-0.031,10.322,8.21,18.73,18.424,18.797c10.297,0.063,18.974-8.521,18.936-18.734c-0.039-10.157-8.515-18.59-18.717-18.616
	C107.5,60.183,99.171,68.472,99.139,78.763z"/>
<g>
	<path fill="#1F212C" d="M203.835,94.291c-8.592,0-15.667-2.795-21.228-8.395c-5.561-5.596-8.342-12.939-8.342-22.029
		c0-9.09,2.87-16.432,8.61-22.03c5.737-5.595,12.886-8.395,21.44-8.395c8.556,0,15.702,2.799,21.441,8.395
		c5.738,5.598,8.609,12.923,8.609,21.977c0,9.055-2.941,16.398-8.823,22.029C219.662,91.476,212.425,94.291,203.835,94.291z
		 M216.508,78.677c3.563-3.563,5.347-8.518,5.347-14.864c0-6.344-1.729-11.283-5.187-14.811c-3.459-3.529-7.647-5.293-12.565-5.293
		c-4.92,0-9.055,1.764-12.406,5.293c-3.352,3.528-5.025,8.485-5.025,14.865c0,6.381,1.639,11.335,4.918,14.865
		c3.278,3.529,7.36,5.293,12.245,5.293C208.718,84.025,212.941,82.244,216.508,78.677z"/>
	<path fill="#1F212C" d="M253.293,34.406v9.303c3.92-6.845,10.194-10.267,18.821-10.267c4.562,0,8.626,1.07,12.191,3.209
		c3.563,2.138,6.272,5.239,8.127,9.304c2.067-3.921,4.937-6.987,8.608-9.197c3.672-2.208,7.824-3.315,12.459-3.315
		c6.771,0,12.332,2.192,16.682,6.577s6.523,10.57,6.523,18.554V93.33h-12.191V60.392c0-5.276-1.318-9.32-3.955-12.138
		c-2.639-2.815-6.24-4.224-10.801-4.224c-4.564,0-8.166,1.409-10.803,4.224C296.319,51.071,295,55.116,295,60.392V93.33h-12.083
		V60.392c0-5.276-1.319-9.32-3.957-12.138c-2.639-2.815-6.239-4.224-10.8-4.224c-4.564,0-8.182,1.409-10.854,4.224
		c-2.674,2.818-4.011,6.862-4.011,12.138V93.33h-12.19V34.406H253.293z"/>
	<path fill="#1F212C" d="M350.822,85.683c-5.348-5.737-8.021-13.082-8.021-22.029c0-8.946,2.654-16.218,7.967-21.816
		c5.311-5.595,11.924-8.395,19.838-8.395c4.633,0,8.715,1.053,12.244,3.155c3.527,2.104,6.258,4.866,8.184,8.288V34.406h12.297
		V93.33h-12.297V82.314c-1.998,3.637-4.744,6.542-8.236,8.715c-3.494,2.176-7.559,3.262-12.189,3.262
		C362.761,94.291,356.167,91.421,350.822,85.683z M385.738,78.304c3.527-3.599,5.295-8.43,5.295-14.49
		c0-6.059-1.768-10.871-5.295-14.437c-3.529-3.565-7.719-5.347-12.566-5.347c-4.85,0-9.037,1.748-12.564,5.24
		c-3.529,3.494-5.293,8.271-5.293,14.33c0,6.061,1.764,10.926,5.293,14.599c3.527,3.672,7.717,5.506,12.564,5.506
		S382.208,81.906,385.738,78.304z"/>
	<path fill="#1F212C" d="M442.576,44.351h-14.33v32.617c0,2.209,0.516,3.796,1.551,4.758c1.031,0.963,2.797,1.443,5.293,1.443h7.486
		v10.16h-9.625c-11.334,0-17.004-5.455-17.004-16.363V44.351h-6.951v-9.945h6.951V19.754h12.299v14.652h14.33V44.351z"/>
	<path fill="#F15922" d="M448.458,93.33V34.406h12.189V93.33H448.458z"/>
	<path fill="#1F212C" d="M475.296,85.951c-5.348-5.562-8.02-12.922-8.02-22.083c0-9.16,2.689-16.522,8.072-22.083
		c5.385-5.561,12.314-8.342,20.801-8.342c7.129,0,13.027,1.694,17.699,5.08c4.668,3.387,7.822,8.217,9.463,14.49H510.16
		c-2.211-6.202-6.881-9.304-14.01-9.304c-4.99,0-8.967,1.764-11.926,5.293c-2.957,3.528-4.436,8.467-4.436,14.811
		c0,6.346,1.479,11.301,4.436,14.865c2.959,3.564,6.936,5.347,11.926,5.347c7.059,0,11.727-3.103,14.01-9.304h13.152
		c-1.711,5.989-4.92,10.749-9.623,14.276c-4.707,3.53-10.553,5.293-17.539,5.293C487.593,94.291,480.642,91.511,475.296,85.951z"/>
	<path fill="#1F212C" d="M527.484,51.302c0-4.99,2.102-9.214,6.309-12.672s9.732-5.187,16.576-5.187s12.279,1.694,16.309,5.08
		c4.027,3.387,6.186,8.003,6.471,13.848h-12.514c-0.213-2.922-1.229-5.203-3.047-6.844c-1.818-1.639-4.367-2.46-7.646-2.46
		s-5.848,0.732-7.697,2.193c-1.855,1.462-2.781,3.387-2.781,5.774c0,2.389,1.176,4.261,3.529,5.615
		c2.352,1.355,5.221,2.353,8.607,2.994c3.385,0.643,6.773,1.427,10.16,2.354c3.385,0.927,6.254,2.619,8.607,5.079
		c2.352,2.459,3.527,5.758,3.527,9.892c0,5.133-2.154,9.304-6.471,12.512c-4.313,3.208-9.855,4.813-16.627,4.813
		c-6.773,0-12.266-1.64-16.469-4.92c-4.209-3.277-6.523-7.949-6.951-14.008h12.617c0.215,2.924,1.285,5.204,3.209,6.844
		c1.924,1.641,4.545,2.459,7.859,2.459s5.951-0.73,7.914-2.192c1.959-1.461,2.941-3.403,2.941-5.828
		c0-2.423-1.178-4.313-3.529-5.667c-2.354-1.354-5.223-2.37-8.609-3.048c-3.387-0.677-6.773-1.46-10.158-2.353
		c-3.387-0.891-6.258-2.514-8.609-4.866C528.66,58.36,527.484,55.224,527.484,51.302z"/>
</g>
<g>
	<path fill="#1F212C" d="M190.805,107.111c1.69,0.86,2.985,2.09,3.886,3.688c0.9,1.6,1.351,3.481,1.351,5.647
		s-0.451,4.044-1.351,5.632c-0.901,1.59-2.196,2.805-3.886,3.645s-3.688,1.26-5.996,1.26h-6.588v-21.161h6.588
		C187.116,105.821,189.115,106.251,190.805,107.111z M191.063,122.535c1.437-1.447,2.155-3.477,2.155-6.088
		c0-2.631-0.724-4.685-2.17-6.162c-1.447-1.478-3.527-2.217-6.239-2.217h-3.825v16.637h3.825
		C187.541,124.705,189.625,123.982,191.063,122.535z"/>
	<path fill="#1F212C" d="M199.776,107.096c-0.364-0.364-0.546-0.81-0.546-1.337c0-0.525,0.182-0.971,0.546-1.336
		c0.364-0.363,0.81-0.545,1.336-0.545c0.506,0,0.936,0.182,1.291,0.545c0.354,0.365,0.531,0.811,0.531,1.336
		c0,0.527-0.178,0.973-0.531,1.337c-0.354,0.364-0.785,0.546-1.291,0.546C200.585,107.643,200.14,107.46,199.776,107.096z
		 M202.448,110.345v16.637h-2.763v-16.637H202.448z"/>
	<path fill="#1F212C" d="M217.793,111.013c1.084,0.627,1.889,1.417,2.414,2.367v-3.035H223v17.001c0,1.519-0.324,2.868-0.971,4.053
		c-0.648,1.185-1.574,2.11-2.777,2.778c-1.205,0.668-2.607,1.002-4.205,1.002c-2.186,0-4.008-0.518-5.465-1.549
		c-1.457-1.032-2.318-2.438-2.582-4.221h2.732c0.305,1.012,0.932,1.826,1.883,2.444c0.951,0.617,2.096,0.926,3.432,0.926
		c1.518,0,2.758-0.476,3.719-1.427c0.961-0.952,1.441-2.288,1.441-4.008v-3.491c-0.547,0.972-1.355,1.78-2.428,2.429
		c-1.074,0.648-2.328,0.973-3.766,0.973c-1.477,0-2.818-0.364-4.021-1.094c-1.205-0.729-2.152-1.75-2.84-3.065
		s-1.032-2.813-1.032-4.494c0-1.7,0.344-3.192,1.032-4.478s1.635-2.283,2.84-2.992c1.203-0.707,2.545-1.063,4.021-1.063
		C215.451,110.071,216.711,110.384,217.793,111.013z M219.449,115.354c-0.508-0.931-1.189-1.644-2.051-2.14
		c-0.859-0.496-1.805-0.744-2.838-0.744c-1.033,0-1.973,0.242-2.824,0.729c-0.85,0.486-1.527,1.195-2.033,2.125
		c-0.506,0.932-0.76,2.024-0.76,3.279c0,1.275,0.254,2.383,0.76,3.324c0.506,0.941,1.184,1.66,2.033,2.156
		c0.852,0.496,1.791,0.744,2.824,0.744c1.033,0,1.979-0.248,2.838-0.744c0.861-0.496,1.543-1.215,2.051-2.156
		c0.506-0.94,0.758-2.038,0.758-3.293C220.207,117.378,219.955,116.285,219.449,115.354z"/>
	<path fill="#1F212C" d="M227.768,107.096c-0.364-0.364-0.546-0.81-0.546-1.337c0-0.525,0.182-0.971,0.546-1.336
		c0.364-0.363,0.81-0.545,1.336-0.545c0.506,0,0.936,0.182,1.29,0.545c0.354,0.365,0.531,0.811,0.531,1.336
		c0,0.527-0.177,0.973-0.531,1.337s-0.784,0.546-1.29,0.546C228.577,107.643,228.132,107.46,227.768,107.096z M230.439,110.345
		v16.637h-2.763v-16.637H230.439z"/>
	<path fill="#1F212C" d="M238.515,112.623v9.807c0,0.811,0.172,1.381,0.516,1.715c0.344,0.334,0.941,0.501,1.791,0.501h2.034v2.338
		h-2.489c-1.538,0-2.692-0.354-3.461-1.063c-0.77-0.707-1.153-1.871-1.153-3.49v-9.807h-2.156v-2.277h2.156v-4.19h2.763v4.19h4.341
		v2.277H238.515z"/>
	<path fill="#1F212C" d="M246.195,114.125c0.688-1.285,1.634-2.281,2.839-2.99c1.203-0.709,2.545-1.063,4.022-1.063
		c1.457,0,2.722,0.313,3.795,0.941c1.072,0.627,1.872,1.417,2.398,2.368v-3.037h2.793v16.638h-2.793v-3.097
		c-0.547,0.972-1.361,1.775-2.444,2.414c-1.083,0.637-2.343,0.955-3.779,0.955c-1.478,0-2.813-0.363-4.008-1.092
		c-1.194-0.729-2.136-1.752-2.823-3.066c-0.688-1.315-1.032-2.813-1.032-4.494C245.163,116.902,245.507,115.41,246.195,114.125z
		 M258.491,115.354c-0.507-0.931-1.189-1.644-2.05-2.14s-1.806-0.744-2.839-0.744c-1.032,0-1.973,0.242-2.823,0.729
		c-0.85,0.486-1.528,1.195-2.034,2.125c-0.506,0.932-0.759,2.024-0.759,3.279c0,1.275,0.253,2.383,0.759,3.324
		s1.185,1.66,2.034,2.156c0.851,0.496,1.791,0.744,2.823,0.744c1.033,0,1.979-0.248,2.839-0.744s1.543-1.215,2.05-2.156
		c0.506-0.94,0.759-2.038,0.759-3.293C259.25,117.378,258.997,116.285,258.491,115.354z"/>
	<path fill="#1F212C" d="M269.481,104.516v22.466h-2.763v-22.466H269.481z"/>
	<path fill="#1F212C" d="M298.535,126.982l-2.762-2.793c-1.033,1.073-2.136,1.867-3.309,2.383c-1.176,0.518-2.5,0.774-3.979,0.774
		c-1.457,0-2.748-0.265-3.871-0.789c-1.123-0.526-1.994-1.274-2.611-2.247c-0.617-0.973-0.926-2.104-0.926-3.4
		c0-1.477,0.42-2.777,1.26-3.9c0.84-1.125,2.08-2.01,3.72-2.657c-0.648-0.769-1.113-1.478-1.396-2.125
		c-0.284-0.647-0.425-1.356-0.425-2.125c0-0.89,0.228-1.694,0.683-2.414c0.455-0.718,1.108-1.28,1.958-1.685
		c0.851-0.404,1.833-0.607,2.946-0.607c1.092,0,2.043,0.212,2.854,0.639c0.811,0.424,1.417,1.016,1.822,1.775
		c0.404,0.759,0.584,1.604,0.545,2.535h-2.762c0.02-0.83-0.214-1.482-0.699-1.958c-0.484-0.476-1.112-0.714-1.883-0.714
		c-0.81,0-1.461,0.229-1.958,0.684S287,109.395,287,110.103c0,0.607,0.167,1.195,0.501,1.762s0.896,1.264,1.685,2.094l6.315,6.347
		l0.547-0.851l2.064-3.461h2.975l-2.49,4.312c-0.344,0.606-0.748,1.243-1.213,1.911l4.766,4.768h-3.615V126.982z M291.446,124.339
		c0.882-0.424,1.716-1.082,2.505-1.973l-6.224-6.255c-2.592,0.992-3.887,2.562-3.887,4.706c0,1.194,0.43,2.186,1.291,2.977
		c0.859,0.789,1.978,1.184,3.354,1.184C289.58,124.978,290.566,124.766,291.446,124.339z"/>
	<path fill="#1F212C" d="M334.3,105.973v21.009h-2.764v-15.666l-6.982,15.666h-1.943l-7.014-15.695v15.695h-2.762v-21.009h2.975
		l7.771,17.366l7.771-17.366H334.3z"/>
	<path fill="#1F212C" d="M338.974,114.125c0.688-1.285,1.635-2.281,2.84-2.99c1.203-0.709,2.545-1.063,4.021-1.063
		c1.457,0,2.723,0.313,3.795,0.941c1.072,0.627,1.873,1.417,2.398,2.368v-3.037h2.793v16.638h-2.793v-3.097
		c-0.547,0.972-1.361,1.775-2.443,2.414c-1.084,0.637-2.344,0.955-3.779,0.955c-1.479,0-2.814-0.363-4.008-1.092
		c-1.195-0.729-2.137-1.752-2.824-3.066c-0.688-1.315-1.031-2.813-1.031-4.494C337.943,116.902,338.287,115.41,338.974,114.125z
		 M351.271,115.354c-0.508-0.931-1.189-1.644-2.051-2.14c-0.859-0.496-1.805-0.744-2.838-0.744s-1.973,0.242-2.824,0.729
		c-0.85,0.486-1.527,1.195-2.033,2.125c-0.506,0.932-0.76,2.024-0.76,3.279c0,1.275,0.254,2.383,0.76,3.324s1.184,1.66,2.033,2.156
		c0.852,0.496,1.791,0.744,2.824,0.744s1.979-0.248,2.838-0.744c0.861-0.496,1.543-1.215,2.051-2.156
		c0.506-0.94,0.758-2.038,0.758-3.293C352.029,117.378,351.777,116.285,351.271,115.354z"/>
	<path fill="#1F212C" d="M364.339,110.832c0.9-0.526,2-0.791,3.295-0.791v2.854h-0.729c-3.1,0-4.646,1.681-4.646,5.04v9.047h-2.764
		v-16.637h2.764v2.701C362.746,112.096,363.439,111.357,364.339,110.832z"/>
	<path fill="#1F212C" d="M380.113,126.982l-6.527-7.348v7.348h-2.764v-22.466h2.764v13.207l6.406-7.377h3.855l-7.834,8.288
		l7.863,8.349L380.113,126.982L380.113,126.982z"/>
	<path fill="#1F212C" d="M401.546,119.695H388.25c0.102,1.639,0.662,2.92,1.684,3.84c1.023,0.922,2.266,1.383,3.723,1.383
		c1.191,0,2.188-0.278,2.988-0.836c0.801-0.557,1.361-1.299,1.688-2.23h2.975c-0.445,1.6-1.336,2.898-2.672,3.9
		s-2.996,1.504-4.979,1.504c-1.58,0-2.99-0.354-4.236-1.063c-1.244-0.709-2.221-1.716-2.93-3.021s-1.064-2.817-1.064-4.539
		c0-1.721,0.344-3.229,1.033-4.523s1.654-2.292,2.898-2.99c1.244-0.699,2.676-1.048,4.297-1.048c1.578,0,2.975,0.345,4.189,1.032
		s2.15,1.635,2.809,2.839c0.656,1.204,0.986,2.565,0.986,4.083C401.638,118.552,401.607,119.109,401.546,119.695z M398.085,114.731
		c-0.465-0.759-1.098-1.335-1.896-1.729c-0.801-0.396-1.686-0.592-2.656-0.592c-1.398,0-2.586,0.444-3.568,1.336
		c-0.98,0.891-1.543,2.125-1.686,3.703h10.506C398.785,116.396,398.55,115.492,398.085,114.731z"/>
	<path fill="#1F212C" d="M408.65,112.623v9.807c0,0.811,0.172,1.381,0.516,1.715s0.941,0.501,1.791,0.501h2.035v2.338h-2.49
		c-1.537,0-2.691-0.354-3.461-1.063c-0.77-0.707-1.152-1.871-1.152-3.49v-9.807h-2.154v-2.277h2.154v-4.19h2.764v4.19h4.342v2.277
		H408.65z"/>
	<path fill="#1F212C" d="M416.423,107.096c-0.365-0.364-0.547-0.81-0.547-1.337c0-0.525,0.182-0.971,0.547-1.336
		c0.363-0.363,0.809-0.545,1.336-0.545c0.506,0,0.936,0.182,1.289,0.545c0.355,0.365,0.531,0.811,0.531,1.336
		c0,0.527-0.176,0.973-0.531,1.337c-0.354,0.364-0.783,0.546-1.289,0.546C417.232,107.643,416.787,107.46,416.423,107.096z
		 M419.095,110.345v16.637h-2.764v-16.637H419.095z"/>
	<path fill="#1F212C" d="M436.824,111.878c1.256,1.225,1.883,2.99,1.883,5.297v9.807h-2.732v-9.412c0-1.658-0.416-2.93-1.242-3.811
		c-0.83-0.879-1.967-1.32-3.4-1.32c-1.457,0-2.617,0.456-3.477,1.366c-0.861,0.911-1.291,2.237-1.291,3.978v9.198H423.8v-16.638
		h2.762v2.369c0.547-0.851,1.291-1.508,2.232-1.975c0.941-0.465,1.979-0.697,3.111-0.697
		C433.929,110.041,435.57,110.653,436.824,111.878z"/>
	<path fill="#1F212C" d="M453.871,111.013c1.084,0.627,1.889,1.417,2.414,2.367v-3.035h2.793v17.001
		c0,1.519-0.324,2.868-0.971,4.053c-0.648,1.185-1.574,2.11-2.777,2.778c-1.205,0.668-2.607,1.002-4.205,1.002
		c-2.186,0-4.008-0.518-5.465-1.549c-1.457-1.032-2.318-2.438-2.582-4.221h2.732c0.305,1.012,0.932,1.826,1.883,2.444
		c0.951,0.617,2.096,0.926,3.432,0.926c1.518,0,2.758-0.476,3.719-1.427c0.961-0.952,1.441-2.288,1.441-4.008v-3.491
		c-0.547,0.972-1.355,1.78-2.428,2.429c-1.074,0.648-2.328,0.973-3.766,0.973c-1.477,0-2.818-0.364-4.021-1.094
		c-1.205-0.729-2.152-1.75-2.84-3.065s-1.031-2.813-1.031-4.494c0-1.7,0.344-3.192,1.031-4.478s1.635-2.283,2.84-2.992
		c1.203-0.707,2.545-1.063,4.021-1.063C451.529,110.071,452.789,110.384,453.871,111.013z M455.527,115.354
		c-0.508-0.931-1.189-1.644-2.051-2.14c-0.859-0.496-1.805-0.744-2.838-0.744s-1.973,0.242-2.824,0.729
		c-0.85,0.486-1.527,1.195-2.033,2.125c-0.506,0.932-0.76,2.024-0.76,3.279c0,1.275,0.254,2.383,0.76,3.324s1.184,1.66,2.033,2.156
		c0.852,0.496,1.791,0.744,2.824,0.744s1.979-0.248,2.838-0.744c0.861-0.496,1.543-1.215,2.051-2.156
		c0.506-0.94,0.758-2.038,0.758-3.293C456.285,117.378,456.033,116.285,455.527,115.354z"/>
	<path fill="#1F212C" d="M484.201,116.401c-1.205,1.164-3.041,1.746-5.51,1.746h-4.068v8.835h-2.764v-21.161h6.832
		c2.387,0,4.205,0.577,5.449,1.729c1.244,1.154,1.867,2.643,1.867,4.464C486.007,113.775,485.404,115.238,484.201,116.401z
		 M482.091,114.869c0.729-0.668,1.092-1.619,1.092-2.854c0-2.611-1.498-3.916-4.492-3.916h-4.068v7.772h4.068
		C480.228,115.871,481.363,115.537,482.091,114.869z"/>
	<path fill="#1F212C" d="M495.632,124.432l5.16-14.087h2.945l-6.527,16.637h-3.219l-6.527-16.637h2.977L495.632,124.432z"/>
	<path fill="#1F212C" d="M509.839,112.623v9.807c0,0.811,0.172,1.381,0.516,1.715s0.941,0.501,1.791,0.501h2.035v2.338h-2.49
		c-1.537,0-2.691-0.354-3.461-1.063c-0.77-0.707-1.152-1.871-1.152-3.49v-9.807h-2.156v-2.277h2.156v-4.19h2.762v4.19h4.342v2.277
		H509.839z"/>
	<path fill="#1F212C" d="M528.39,124.735h7.408v2.247h-10.172v-21.161h2.764V124.735z"/>
	<path fill="#1F212C" d="M542.113,112.623v9.807c0,0.811,0.172,1.381,0.516,1.715s0.941,0.501,1.791,0.501h2.033v2.338h-2.488
		c-1.539,0-2.691-0.354-3.461-1.063c-0.77-0.707-1.154-1.871-1.154-3.49v-9.807h-2.154v-2.277h2.154v-4.19h2.766v4.19h4.34v2.277
		H542.113z"/>
	<path fill="#1F212C" d="M549.792,114.125c0.688-1.285,1.635-2.281,2.84-2.99c1.203-0.709,2.555-1.063,4.053-1.063
		c1.295,0,2.498,0.3,3.613,0.896c1.111,0.599,1.963,1.382,2.549,2.354v-8.804h2.793v22.466h-2.793v-3.127
		c-0.547,0.992-1.355,1.807-2.428,2.443c-1.074,0.638-2.328,0.957-3.766,0.957c-1.479,0-2.818-0.364-4.021-1.094
		c-1.205-0.729-2.152-1.75-2.84-3.065c-0.689-1.315-1.031-2.813-1.031-4.494C548.761,116.902,549.105,115.41,549.792,114.125z
		 M562.089,115.354c-0.508-0.931-1.189-1.644-2.051-2.14c-0.859-0.496-1.805-0.744-2.838-0.744s-1.975,0.242-2.824,0.729
		s-1.527,1.195-2.033,2.125c-0.506,0.932-0.76,2.024-0.76,3.279c0,1.275,0.254,2.383,0.76,3.324s1.184,1.66,2.033,2.156
		c0.852,0.496,1.791,0.744,2.824,0.744c1.031,0,1.979-0.248,2.838-0.744c0.861-0.496,1.543-1.215,2.051-2.156
		c0.506-0.94,0.758-2.038,0.758-3.293C562.847,117.378,562.595,116.285,562.089,115.354z"/>
	<path fill="#1F212C" d="M569.861,126.619c-0.365-0.365-0.547-0.811-0.547-1.336c0-0.527,0.182-0.973,0.547-1.337
		s0.809-0.546,1.336-0.546c0.506,0,0.936,0.182,1.291,0.546c0.354,0.364,0.531,0.81,0.531,1.337c0,0.525-0.178,0.971-0.531,1.336
		c-0.355,0.363-0.785,0.547-1.291,0.547C570.669,127.166,570.226,126.982,569.861,126.619z"/>
</g>
<path fill="#F15922" d="M440.046,15.766c-0.006-7.878,6.264-14.229,14.068-14.249c8.16-0.021,14.459,6.214,14.453,14.304
	C468.558,23.715,462.226,30,454.279,30C446.355,30,440.052,23.695,440.046,15.766z M445.333,15.69
	c-0.014,4.972,3.957,9.022,8.877,9.054c4.959,0.031,9.139-4.105,9.119-9.024c-0.018-4.893-4.102-8.955-9.014-8.967
	C449.363,6.739,445.351,10.733,445.333,15.69z"/>
</svg>
